HIERARCHY
ROOT SimulationBone
{
	OFFSET 0.000000 0.000000 0.000000
	CHANNELS 6 Xposition Yposition Zposition Zrotation Yrotation Xrotation 
	JOINT Hips
	{
		OFFSET 0.000000 0.000000 0.000000
		CHANNELS 6 Xposition Yposition Zposition Zrotation Yrotation Xrotation 
		JOINT LeftUpLeg
		{
			OFFSET 0.103458 1.857831 10.548505
			CHANNELS 3 Zrotation Yrotation Xrotation
			JOINT LeftLeg
			{
				OFFSET 43.500000 -0.000031 0.000002
				CHANNELS 3 Zrotation Yrotation Xrotation
				JOINT LeftFoot
				{
					OFFSET 42.372200 0.000023 0.000003
					CHANNELS 3 Zrotation Yrotation Xrotation
					JOINT LeftToe
					{
						OFFSET 17.299997 -0.000001 -0.000010
						CHANNELS 3 Zrotation Yrotation Xrotation
						End Site
						{
							OFFSET 0.000000 0.000000 0.000000
						}
					}
				}
			}
		}
		JOINT RightUpLeg
		{
			OFFSET 0.103457 1.857828 -10.548510
			CHANNELS 3 Zrotation Yrotation Xrotation
			JOINT RightLeg
			{
				OFFSET 43.500046 -0.000015 0.000002
				CHANNELS 3 Zrotation Yrotation Xrotation
				JOINT RightFoot
				{
					OFFSET 42.372261 -0.000008 0.000023
					CHANNELS 3 Zrotation Yrotation Xrotation
					JOINT RightToe
					{
						OFFSET 17.299990 -0.000007 -0.000002
						CHANNELS 3 Zrotation Yrotation Xrotation
						End Site
						{
							OFFSET 0.000000 0.000000 0.000000
						}
					}
				}
			}
		}
		JOINT Spine
		{
			OFFSET 6.901967 -2.603726 -0.000001
			CHANNELS 3 Zrotation Yrotation Xrotation
			JOINT Spine1
			{
				OFFSET 12.588100 -0.000009 -0.000003
				CHANNELS 3 Zrotation Yrotation Xrotation
				JOINT Spine2
				{
					OFFSET 12.343202 0.000008 0.000008
					CHANNELS 3 Zrotation Yrotation Xrotation
					JOINT Neck
					{
						OFFSET 25.832897 -0.000015 -0.000004
						CHANNELS 3 Zrotation Yrotation Xrotation
						JOINT Head
						{
							OFFSET 11.766609 0.000013 -0.000006
							CHANNELS 3 Zrotation Yrotation Xrotation
							End Site
							{
								OFFSET 0.000000 0.000000 0.000000
							}
						}
					}
					JOINT LeftShoulder
					{
						OFFSET 19.745911 -1.480373 6.000098
						CHANNELS 3 Zrotation Yrotation Xrotation
						JOINT LeftArm
						{
							OFFSET 11.284123 -0.000007 -0.000032
							CHANNELS 3 Zrotation Yrotation Xrotation
							JOINT LeftForeArm
							{
								OFFSET 33.000050 0.000005 0.000031
								CHANNELS 3 Zrotation Yrotation Xrotation
								JOINT LeftHand
								{
									OFFSET 25.200008 0.000017 0.000013
									CHANNELS 3 Zrotation Yrotation Xrotation
									End Site
									{
										OFFSET 0.000000 0.000000 0.000000
									}
								}
							}
						}
					}
					JOINT RightShoulder
					{
						OFFSET 19.746092 -1.480379 -6.000077
						CHANNELS 3 Zrotation Yrotation Xrotation
						JOINT RightArm
						{
							OFFSET 11.284136 -0.000017 -0.000017
							CHANNELS 3 Zrotation Yrotation Xrotation
							JOINT RightForeArm
							{
								OFFSET 33.000099 0.000019 0.000015
								CHANNELS 3 Zrotation Yrotation Xrotation
								JOINT RightHand
								{
									OFFSET 25.199780 0.000140 0.000408
									CHANNELS 3 Zrotation Yrotation Xrotation
									End Site
									{
										OFFSET 0.000000 0.000000 0.000000
									}
								}
							}
						}
					}
				}
			}
		}
	}
}
MOTION
Frames: 10
Frame Time: 0.016667
80.309053 0.000000 -233.489407 0.000000 265.431545 0.000000 -1.502140 86.859360 0.767395 90.582474 1.108038 -179.365199 142.148680 -10.311095 178.171249 -34.787740 -1.819399 -8.481124 67.582494 3.378202 -8.150096 21.454553 0.003092 -0.000001 -165.505551 0.763194 -170.350368 -13.006678 4.517438 13.411031 91.285423 -7.879983 9.829739 21.454558 -0.003106 -0.000018 7.990503 -0.272587 2.576525 5.953141 -0.676790 5.135715 5.636427 -0.645686 5.139703 -1.509909 -10.695028 -2.360601 -8.665633 5.526864 -5.984202 -144.877640 -73.555376 -37.464798 23.166831 47.060918 39.449724 -26.371402 -15.352530 1.186814 15.651160 -10.160109 -26.620822 -176.361987 74.958891 5.157964 -27.788695 -46.893926 3.148633 -74.915611 15.381458 -2.761778 -2.467860 8.335753 -30.206538 
80.882172 0.000000 -232.078623 0.000000 266.033604 0.000000 -1.833355 86.464438 1.132212 90.517730 1.413971 -179.418182 141.131009 -10.924355 178.642170 -34.436031 -1.859350 -8.455205 68.254375 3.493677 -7.874993 21.454551 0.003094 0.000000 -164.656992 0.554154 -169.557882 -12.854066 4.481055 13.169136 91.609413 -7.675814 10.316047 21.454557 -0.003103 -0.000020 8.154323 -0.355442 2.617501 6.276644 -0.851829 5.212056 5.959942 -0.820226 5.217080 -1.337915 -10.118093 -2.813752 -9.029954 5.456676 -6.320511 -144.095150 -73.629363 -38.262782 25.989135 47.268664 41.888658 -26.369129 -15.518166 1.196804 15.267421 -9.006829 -26.404020 -175.579965 74.793616 5.956670 -27.745694 -46.886963 4.739677 -76.579015 14.552927 -2.776284 -2.243026 8.234009 -30.856406 
81.460081 0.000000 -230.647065 0.000000 266.644850 0.000000 -2.123490 86.042191 1.452073 90.468920 1.738268 -179.386723 140.042509 -11.299494 178.495574 -34.628785 -1.517866 -8.473755 68.669246 3.382207 -8.292844 21.454551 0.003094 -0.000000 -163.746600 0.359897 -168.749386 -12.731712 4.506866 12.922152 91.856303 -7.466690 10.795507 21.454558 -0.003109 -0.000020 8.314242 -0.406488 2.657989 6.593679 -0.963318 5.288730 6.277009 -0.931242 5.294417 -1.236229 -9.744972 -3.311155 -9.115415 5.391231 -6.732546 -143.586994 -73.661899 -38.781480 28.295379 47.536350 44.851761 -26.090451 -15.628480 1.199722 14.613980 -8.365556 -26.477045 -174.879590 74.879981 6.674469 -27.464328 -47.118291 5.954626 -77.870084 13.824876 -2.779976 -2.309185 8.262573 -30.620850 
82.042272 0.000000 -229.195346 0.000000 267.264598 0.000000 -2.380255 85.592188 1.720953 90.403043 2.043396 -179.328570 138.911699 -11.476248 178.005301 -35.335164 -1.010070 -8.480974 68.954338 3.214248 -8.831536 21.454550 0.003094 -0.000000 -162.831860 0.221707 -167.990472 -12.671488 4.563834 12.666367 92.065378 -7.243018 11.339277 21.454558 -0.003116 -0.000019 8.458038 -0.440128 2.704894 6.879141 -1.039867 5.379091 6.562521 -1.007251 5.385237 -1.174475 -9.562369 -3.790177 -9.007462 5.491914 -7.201677 -143.318083 -73.680171 -39.055894 30.184135 47.807067 47.737853 -25.712643 -15.572454 1.189942 13.607047 -8.082742 -25.730842 -174.308104 75.078543 7.261089 -26.910917 -47.509274 6.748744 -78.824324 13.234480 -2.779392 -2.567876 8.357362 -29.952970 
82.628236 0.000000 -227.724079 0.000000 267.892136 0.000000 -2.611012 85.113998 1.932518 90.287246 2.291055 -179.301741 137.760844 -11.484407 177.446826 -36.523647 -0.549799 -8.421850 69.233453 3.153277 -8.916968 21.454551 0.003095 0.000000 -161.968989 0.184491 -167.345140 -12.705030 4.620627 12.397861 92.276654 -6.996372 12.018806 21.454558 -0.003117 -0.000018 8.573462 -0.470776 2.765052 7.107820 -1.110121 5.496231 6.791264 -1.076807 5.502804 -1.122201 -9.556684 -4.187440 -8.794305 5.919395 -7.708169 -143.249241 -73.710202 -39.125110 31.732351 48.047060 49.926510 -25.413635 -15.238990 1.163902 12.168126 -7.953933 -23.056055 -173.943895 75.250389 7.635123 -26.040112 -47.977550 7.067697 -79.476388 12.818890 -2.779221 -2.920647 8.455298 -29.306090 
83.217465 0.000000 -226.233878 0.000000 268.526732 0.000000 -2.814051 84.608320 2.080070 90.108949 2.456970 -179.347338 136.650780 -11.350139 177.049731 -38.126198 -0.301986 -8.259026 69.616436 3.278435 -8.255056 21.454551 0.003098 0.000001 -161.198656 0.277801 -166.847955 -12.883207 4.641930 12.114241 92.499247 -6.720274 12.885552 21.454557 -0.003107 -0.000018 8.651238 -0.508515 2.842501 7.260626 -1.194011 5.647787 6.944146 -1.159787 5.654870 -1.027823 -9.682099 -4.471960 -8.566734 6.720572 -8.224613 -143.329253 -73.769613 -39.040836 32.976482 48.262565 51.050135 -25.307953 -14.620882 1.122979 10.373377 -7.653254 -17.824184 -173.858711 75.281705 7.722555 -24.811049 -48.442201 6.834125 -79.831783 12.614924 -2.781108 -3.264635 8.492426 -28.997720 
83.809450 0.000000 -224.725355 0.000000 269.167619 0.000000 -2.952422 84.080383 2.157169 89.935377 2.576616 -179.438431 135.803680 -11.121315 176.858145 -39.930200 -0.248948 -8.050010 70.160843 3.349935 -7.676791 21.454551 0.003099 0.000002 -160.502410 0.457901 -166.420906 -13.334499 4.577102 11.819840 92.615834 -6.409776 13.909560 21.454557 -0.003100 -0.000018 8.694108 -0.546109 2.930283 7.343424 -1.276706 5.820338 7.027032 -1.241447 5.827920 -0.753495 -9.764530 -4.743627 -8.412698 7.490682 -8.699642 -143.461387 -73.845105 -38.902617 33.849228 48.564171 51.800799 -25.255730 -14.126248 1.090412 8.945789 -6.749748 -11.352242 -174.019819 75.158127 7.556822 -23.225671 -48.841719 5.898194 -79.782059 12.657748 -2.781249 -3.470271 8.422825 -28.803668 
84.403682 0.000000 -223.199124 0.000000 269.813866 0.000000 -3.000218 83.554186 2.160833 89.812791 2.672616 -179.556353 135.431751 -10.826981 176.820045 -41.655861 -0.323007 -7.877473 70.767713 3.185505 -7.906158 21.454551 0.003094 0.000001 -159.871808 0.699513 -165.944131 -14.140300 4.384587 11.500077 92.476101 -6.042094 15.024647 21.454558 -0.003106 -0.000018 8.705528 -0.580073 3.018733 7.363417 -1.350676 5.994821 7.047123 -1.314380 6.002842 -0.234466 -9.630734 -5.087664 -8.355763 7.819169 -9.072109 -143.524939 -73.902983 -38.835301 34.287161 49.019833 52.899974 -25.119890 -14.098760 1.086653 8.460026 -5.223019 -5.046626 -174.298650 74.899990 7.269396 -21.360504 -49.141225 4.130163 -79.178913 12.990056 -2.775280 -3.437422 8.279754 -28.413959 
84.999652 0.000000 -221.655799 0.000000 -89.534617 0.000000 -3.011809 83.124283 2.094961 89.627532 2.648230 -179.783786 135.542453 -10.396292 176.672378 -42.896203 -0.423190 -7.828549 70.789760 3.090639 -8.093469 21.454551 0.003089 -0.000001 -159.392887 1.134292 -165.236865 -15.117620 4.077976 11.052390 91.924797 -5.536522 16.103861 21.454560 -0.003114 -0.000017 8.679643 -0.639283 3.098290 7.307561 -1.472530 6.150516 6.991350 -1.435302 6.159260 0.219989 -9.247473 -5.404120 -8.193130 7.728819 -9.253148 -143.354863 -73.858110 -39.011087 34.283396 49.499452 54.075758 -25.030315 -14.209509 1.092193 8.028834 -3.885795 1.214335 -174.342587 74.569597 7.221666 -19.525189 -49.431014 1.528647 -77.829677 13.686581 -2.768470 -3.208935 8.384010 -27.714330 
85.596851 0.000000 -220.095993 0.000000 -88.879606 0.000000 -3.045957 82.879855 1.967112 89.278371 2.405790 179.812941 136.048211 -9.755724 176.170371 -43.387410 -0.452268 -7.951477 69.789468 3.386286 -7.274772 21.454551 0.003089 -0.000001 -159.145591 1.870284 -164.207417 -16.080429 3.664094 10.418269 90.807082 -4.833991 17.051388 21.454559 -0.003110 -0.000017 8.613835 -0.748611 3.157501 7.169429 -1.690954 6.263254 6.853256 -1.653034 6.273300 0.329234 -8.672866 -5.571168 -7.784682 7.393964 -9.189545 -142.927551 -73.635780 -39.457266 33.830133 49.882328 54.919662 -25.125040 -14.076449 1.085248 6.718386 -3.267570 7.647373 -173.939252 74.238293 7.632216 -17.992105 -49.828067 -1.823000 -75.580678 14.782672 -2.752318 -2.826623 8.959395 -26.696180 
